<svg width="40" height="50" viewBox="0 0 40 50" fill="none" xmlns="http://www.w3.org/2000/svg">
<path opacity="0.6" d="M17.4406 4.67651C17.7476 4.21738 17.6242 3.59635 17.1651 3.2894C16.706 2.98244 16.0849 3.10581 15.778 3.56493L10.2202 11.878L1.90705 6.32014C1.44792 6.01319 0.826892 6.13655 0.519939 6.59568C0.212987 7.05481 0.336349 7.67584 0.795477 7.98279L9.10867 13.5406L3.55066 21.8541C3.24371 22.3132 3.36707 22.9342 3.8262 23.2412C4.28533 23.5481 4.90636 23.4248 5.21331 22.9657L10.7713 14.6522L19.0846 20.2101C19.5437 20.5171 20.1648 20.3937 20.4717 19.9346C20.7787 19.4754 20.6553 18.8544 20.1962 18.5475L11.8829 12.9895L17.4406 4.67651Z" fill="#F92464"/>
</svg>
